<mxfile host="app.diagrams.net" modified="2023-05-17T02:42:10.342Z" agent="Mozilla/5.0 (Windows NT 10.0; Win64; x64) AppleWebKit/537.36 (KHTML, like Gecko) Chrome/113.0.0.0 Safari/537.36" etag="F5FkQkUfRVy5vHxGbH3g" version="21.2.3" type="device">
  <diagram id="C5RBs43oDa-KdzZeNtuy" name="Page-1">
    <mxGraphModel dx="1434" dy="764" grid="1" gridSize="10" guides="1" tooltips="1" connect="1" arrows="1" fold="1" page="1" pageScale="1" pageWidth="827" pageHeight="1169" math="0" shadow="0">
      <root>
        <mxCell id="WIyWlLk6GJQsqaUBKTNV-0" />
        <mxCell id="WIyWlLk6GJQsqaUBKTNV-1" parent="WIyWlLk6GJQsqaUBKTNV-0" />
        <mxCell id="CgJnwh23Cw8LqNJ6uvOU-18" style="edgeStyle=orthogonalEdgeStyle;rounded=0;orthogonalLoop=1;jettySize=auto;html=1;exitX=0.5;exitY=1;exitDx=0;exitDy=0;entryX=0.5;entryY=0;entryDx=0;entryDy=0;" edge="1" parent="WIyWlLk6GJQsqaUBKTNV-1" source="CgJnwh23Cw8LqNJ6uvOU-0" target="CgJnwh23Cw8LqNJ6uvOU-11">
          <mxGeometry relative="1" as="geometry" />
        </mxCell>
        <mxCell id="CgJnwh23Cw8LqNJ6uvOU-0" value="Start Program" style="ellipse;whiteSpace=wrap;html=1;fillColor=#d5e8d4;strokeColor=#82b366;" vertex="1" parent="WIyWlLk6GJQsqaUBKTNV-1">
          <mxGeometry x="40" y="40" width="120" height="80" as="geometry" />
        </mxCell>
        <mxCell id="CgJnwh23Cw8LqNJ6uvOU-20" style="edgeStyle=orthogonalEdgeStyle;rounded=0;orthogonalLoop=1;jettySize=auto;html=1;exitX=0.5;exitY=1;exitDx=0;exitDy=0;entryX=0.5;entryY=0;entryDx=0;entryDy=0;" edge="1" parent="WIyWlLk6GJQsqaUBKTNV-1" source="CgJnwh23Cw8LqNJ6uvOU-9" target="CgJnwh23Cw8LqNJ6uvOU-19">
          <mxGeometry relative="1" as="geometry" />
        </mxCell>
        <mxCell id="CgJnwh23Cw8LqNJ6uvOU-9" value="Clear the console and display Blackjack Ascii Art" style="rounded=0;whiteSpace=wrap;html=1;fillColor=#dae8fc;strokeColor=#6c8ebf;" vertex="1" parent="WIyWlLk6GJQsqaUBKTNV-1">
          <mxGeometry x="40" y="380" width="120" height="60" as="geometry" />
        </mxCell>
        <mxCell id="CgJnwh23Cw8LqNJ6uvOU-16" style="edgeStyle=orthogonalEdgeStyle;rounded=0;orthogonalLoop=1;jettySize=auto;html=1;exitX=0.5;exitY=1;exitDx=0;exitDy=0;" edge="1" parent="WIyWlLk6GJQsqaUBKTNV-1" source="CgJnwh23Cw8LqNJ6uvOU-11" target="CgJnwh23Cw8LqNJ6uvOU-13">
          <mxGeometry relative="1" as="geometry" />
        </mxCell>
        <mxCell id="CgJnwh23Cw8LqNJ6uvOU-11" value="Ask the user if they would like to play Blackjack" style="shape=parallelogram;perimeter=parallelogramPerimeter;whiteSpace=wrap;html=1;fixedSize=1;fillColor=#ffe6cc;strokeColor=#d79b00;" vertex="1" parent="WIyWlLk6GJQsqaUBKTNV-1">
          <mxGeometry x="40" y="160" width="120" height="60" as="geometry" />
        </mxCell>
        <mxCell id="CgJnwh23Cw8LqNJ6uvOU-15" value="No" style="edgeStyle=orthogonalEdgeStyle;rounded=0;orthogonalLoop=1;jettySize=auto;html=1;exitX=1;exitY=0.5;exitDx=0;exitDy=0;entryX=0;entryY=0.5;entryDx=0;entryDy=0;" edge="1" parent="WIyWlLk6GJQsqaUBKTNV-1" source="CgJnwh23Cw8LqNJ6uvOU-13" target="CgJnwh23Cw8LqNJ6uvOU-14">
          <mxGeometry relative="1" as="geometry" />
        </mxCell>
        <mxCell id="CgJnwh23Cw8LqNJ6uvOU-17" value="Yes" style="edgeStyle=orthogonalEdgeStyle;rounded=0;orthogonalLoop=1;jettySize=auto;html=1;exitX=0.5;exitY=1;exitDx=0;exitDy=0;entryX=0.5;entryY=0;entryDx=0;entryDy=0;" edge="1" parent="WIyWlLk6GJQsqaUBKTNV-1" source="CgJnwh23Cw8LqNJ6uvOU-13" target="CgJnwh23Cw8LqNJ6uvOU-9">
          <mxGeometry relative="1" as="geometry" />
        </mxCell>
        <mxCell id="CgJnwh23Cw8LqNJ6uvOU-13" value="Y/N" style="rhombus;whiteSpace=wrap;html=1;fillColor=#fff2cc;strokeColor=#d6b656;" vertex="1" parent="WIyWlLk6GJQsqaUBKTNV-1">
          <mxGeometry x="60" y="260" width="80" height="80" as="geometry" />
        </mxCell>
        <mxCell id="CgJnwh23Cw8LqNJ6uvOU-14" value="End Program" style="ellipse;whiteSpace=wrap;html=1;fillColor=#f8cecc;strokeColor=#b85450;" vertex="1" parent="WIyWlLk6GJQsqaUBKTNV-1">
          <mxGeometry x="190" y="260" width="120" height="80" as="geometry" />
        </mxCell>
        <mxCell id="CgJnwh23Cw8LqNJ6uvOU-22" style="edgeStyle=orthogonalEdgeStyle;rounded=0;orthogonalLoop=1;jettySize=auto;html=1;exitX=0.5;exitY=1;exitDx=0;exitDy=0;entryX=0.5;entryY=0;entryDx=0;entryDy=0;" edge="1" parent="WIyWlLk6GJQsqaUBKTNV-1" source="CgJnwh23Cw8LqNJ6uvOU-19" target="CgJnwh23Cw8LqNJ6uvOU-21">
          <mxGeometry relative="1" as="geometry" />
        </mxCell>
        <mxCell id="CgJnwh23Cw8LqNJ6uvOU-19" value="Present the 2 cards the player has and find the sum&lt;br&gt;&lt;br&gt;Use a list and sum() or use a for loop to add all elements of that list together" style="rounded=0;whiteSpace=wrap;html=1;fillColor=#dae8fc;strokeColor=#6c8ebf;" vertex="1" parent="WIyWlLk6GJQsqaUBKTNV-1">
          <mxGeometry x="20" y="480" width="160" height="90" as="geometry" />
        </mxCell>
        <mxCell id="CgJnwh23Cw8LqNJ6uvOU-24" style="edgeStyle=orthogonalEdgeStyle;rounded=0;orthogonalLoop=1;jettySize=auto;html=1;exitX=0.5;exitY=1;exitDx=0;exitDy=0;entryX=0.5;entryY=0;entryDx=0;entryDy=0;" edge="1" parent="WIyWlLk6GJQsqaUBKTNV-1" source="CgJnwh23Cw8LqNJ6uvOU-21" target="CgJnwh23Cw8LqNJ6uvOU-23">
          <mxGeometry relative="1" as="geometry" />
        </mxCell>
        <mxCell id="CgJnwh23Cw8LqNJ6uvOU-21" value="Present only 1 card that the dealer has and do not display the sum&lt;br&gt;&lt;br&gt;Use a list and sum() or use a for loop to add all elements of that list together" style="rounded=0;whiteSpace=wrap;html=1;fillColor=#dae8fc;strokeColor=#6c8ebf;" vertex="1" parent="WIyWlLk6GJQsqaUBKTNV-1">
          <mxGeometry x="10" y="610" width="180" height="120" as="geometry" />
        </mxCell>
        <mxCell id="CgJnwh23Cw8LqNJ6uvOU-64" style="edgeStyle=orthogonalEdgeStyle;rounded=0;orthogonalLoop=1;jettySize=auto;html=1;exitX=1;exitY=0.5;exitDx=0;exitDy=0;entryX=0;entryY=0.5;entryDx=0;entryDy=0;" edge="1" parent="WIyWlLk6GJQsqaUBKTNV-1" source="CgJnwh23Cw8LqNJ6uvOU-23" target="CgJnwh23Cw8LqNJ6uvOU-52">
          <mxGeometry relative="1" as="geometry" />
        </mxCell>
        <mxCell id="CgJnwh23Cw8LqNJ6uvOU-23" value="Ask the user if they want another card or if they wan to pass" style="shape=parallelogram;perimeter=parallelogramPerimeter;whiteSpace=wrap;html=1;fixedSize=1;fillColor=#ffe6cc;strokeColor=#d79b00;" vertex="1" parent="WIyWlLk6GJQsqaUBKTNV-1">
          <mxGeometry x="30" y="770" width="140" height="70" as="geometry" />
        </mxCell>
        <mxCell id="CgJnwh23Cw8LqNJ6uvOU-28" value="Yes" style="edgeStyle=orthogonalEdgeStyle;rounded=0;orthogonalLoop=1;jettySize=auto;html=1;exitX=0.5;exitY=1;exitDx=0;exitDy=0;entryX=0.5;entryY=0;entryDx=0;entryDy=0;" edge="1" parent="WIyWlLk6GJQsqaUBKTNV-1" target="CgJnwh23Cw8LqNJ6uvOU-27">
          <mxGeometry relative="1" as="geometry">
            <mxPoint x="260" y="850" as="sourcePoint" />
          </mxGeometry>
        </mxCell>
        <mxCell id="CgJnwh23Cw8LqNJ6uvOU-45" style="edgeStyle=orthogonalEdgeStyle;rounded=0;orthogonalLoop=1;jettySize=auto;html=1;exitX=0.5;exitY=1;exitDx=0;exitDy=0;entryX=0.5;entryY=0;entryDx=0;entryDy=0;" edge="1" parent="WIyWlLk6GJQsqaUBKTNV-1" source="CgJnwh23Cw8LqNJ6uvOU-27" target="CgJnwh23Cw8LqNJ6uvOU-44">
          <mxGeometry relative="1" as="geometry" />
        </mxCell>
        <mxCell id="CgJnwh23Cw8LqNJ6uvOU-27" value="Select a random number from the Cards list and add it to the player&#39;s list" style="rounded=0;whiteSpace=wrap;html=1;fillColor=#dae8fc;strokeColor=#6c8ebf;" vertex="1" parent="WIyWlLk6GJQsqaUBKTNV-1">
          <mxGeometry x="200" y="890" width="120" height="60" as="geometry" />
        </mxCell>
        <mxCell id="CgJnwh23Cw8LqNJ6uvOU-32" style="edgeStyle=orthogonalEdgeStyle;rounded=0;orthogonalLoop=1;jettySize=auto;html=1;exitX=1;exitY=0.5;exitDx=0;exitDy=0;entryX=0;entryY=0.5;entryDx=0;entryDy=0;" edge="1" parent="WIyWlLk6GJQsqaUBKTNV-1" source="CgJnwh23Cw8LqNJ6uvOU-29" target="CgJnwh23Cw8LqNJ6uvOU-31">
          <mxGeometry relative="1" as="geometry" />
        </mxCell>
        <mxCell id="CgJnwh23Cw8LqNJ6uvOU-29" value="Check if the dealer&#39;s list is lesser than 17" style="rounded=0;whiteSpace=wrap;html=1;fillColor=#dae8fc;strokeColor=#6c8ebf;" vertex="1" parent="WIyWlLk6GJQsqaUBKTNV-1">
          <mxGeometry x="350" y="775" width="120" height="60" as="geometry" />
        </mxCell>
        <mxCell id="CgJnwh23Cw8LqNJ6uvOU-34" value="Yes" style="edgeStyle=orthogonalEdgeStyle;rounded=0;orthogonalLoop=1;jettySize=auto;html=1;exitX=0.5;exitY=0;exitDx=0;exitDy=0;entryX=0.5;entryY=1;entryDx=0;entryDy=0;" edge="1" parent="WIyWlLk6GJQsqaUBKTNV-1" source="CgJnwh23Cw8LqNJ6uvOU-31" target="CgJnwh23Cw8LqNJ6uvOU-33">
          <mxGeometry relative="1" as="geometry" />
        </mxCell>
        <mxCell id="CgJnwh23Cw8LqNJ6uvOU-37" value="No" style="edgeStyle=orthogonalEdgeStyle;rounded=0;orthogonalLoop=1;jettySize=auto;html=1;exitX=1;exitY=0.5;exitDx=0;exitDy=0;entryX=0;entryY=0.5;entryDx=0;entryDy=0;" edge="1" parent="WIyWlLk6GJQsqaUBKTNV-1" source="CgJnwh23Cw8LqNJ6uvOU-31" target="CgJnwh23Cw8LqNJ6uvOU-36">
          <mxGeometry relative="1" as="geometry">
            <Array as="points">
              <mxPoint x="620" y="805" />
              <mxPoint x="620" y="805" />
            </Array>
          </mxGeometry>
        </mxCell>
        <mxCell id="CgJnwh23Cw8LqNJ6uvOU-31" value="&amp;lt;17?" style="rhombus;whiteSpace=wrap;html=1;fillColor=#fff2cc;strokeColor=#d6b656;" vertex="1" parent="WIyWlLk6GJQsqaUBKTNV-1">
          <mxGeometry x="520" y="765" width="80" height="80" as="geometry" />
        </mxCell>
        <mxCell id="CgJnwh23Cw8LqNJ6uvOU-35" style="edgeStyle=orthogonalEdgeStyle;rounded=0;orthogonalLoop=1;jettySize=auto;html=1;exitX=0;exitY=0.5;exitDx=0;exitDy=0;entryX=0.5;entryY=0;entryDx=0;entryDy=0;" edge="1" parent="WIyWlLk6GJQsqaUBKTNV-1" source="CgJnwh23Cw8LqNJ6uvOU-33" target="CgJnwh23Cw8LqNJ6uvOU-29">
          <mxGeometry relative="1" as="geometry" />
        </mxCell>
        <mxCell id="CgJnwh23Cw8LqNJ6uvOU-33" value="Select a random number from the Cards list and add it to the dealer&#39;s list" style="rounded=0;whiteSpace=wrap;html=1;fillColor=#dae8fc;strokeColor=#6c8ebf;" vertex="1" parent="WIyWlLk6GJQsqaUBKTNV-1">
          <mxGeometry x="500" y="665" width="120" height="60" as="geometry" />
        </mxCell>
        <mxCell id="CgJnwh23Cw8LqNJ6uvOU-39" style="edgeStyle=orthogonalEdgeStyle;rounded=0;orthogonalLoop=1;jettySize=auto;html=1;exitX=1;exitY=0.5;exitDx=0;exitDy=0;entryX=0;entryY=0.5;entryDx=0;entryDy=0;" edge="1" parent="WIyWlLk6GJQsqaUBKTNV-1" source="CgJnwh23Cw8LqNJ6uvOU-36" target="CgJnwh23Cw8LqNJ6uvOU-38">
          <mxGeometry relative="1" as="geometry" />
        </mxCell>
        <mxCell id="CgJnwh23Cw8LqNJ6uvOU-36" value="Check if the dealer&#39;s list is lesser than 21 and greater than the player&#39;s list" style="rounded=0;whiteSpace=wrap;html=1;fillColor=#dae8fc;strokeColor=#6c8ebf;" vertex="1" parent="WIyWlLk6GJQsqaUBKTNV-1">
          <mxGeometry x="650" y="775" width="120" height="60" as="geometry" />
        </mxCell>
        <mxCell id="CgJnwh23Cw8LqNJ6uvOU-41" value="Yes" style="edgeStyle=orthogonalEdgeStyle;rounded=0;orthogonalLoop=1;jettySize=auto;html=1;exitX=0.5;exitY=0;exitDx=0;exitDy=0;entryX=0.5;entryY=1;entryDx=0;entryDy=0;" edge="1" parent="WIyWlLk6GJQsqaUBKTNV-1" source="CgJnwh23Cw8LqNJ6uvOU-38">
          <mxGeometry relative="1" as="geometry">
            <mxPoint x="860" y="735" as="targetPoint" />
          </mxGeometry>
        </mxCell>
        <mxCell id="CgJnwh23Cw8LqNJ6uvOU-43" value="No" style="edgeStyle=orthogonalEdgeStyle;rounded=0;orthogonalLoop=1;jettySize=auto;html=1;exitX=1;exitY=0.5;exitDx=0;exitDy=0;entryX=0;entryY=0.5;entryDx=0;entryDy=0;" edge="1" parent="WIyWlLk6GJQsqaUBKTNV-1" source="CgJnwh23Cw8LqNJ6uvOU-38" target="CgJnwh23Cw8LqNJ6uvOU-42">
          <mxGeometry relative="1" as="geometry" />
        </mxCell>
        <mxCell id="CgJnwh23Cw8LqNJ6uvOU-38" value="&amp;lt;=21 &amp;amp; &amp;gt;Player?" style="rhombus;whiteSpace=wrap;html=1;fillColor=#fff2cc;strokeColor=#d6b656;" vertex="1" parent="WIyWlLk6GJQsqaUBKTNV-1">
          <mxGeometry x="820" y="765" width="80" height="80" as="geometry" />
        </mxCell>
        <mxCell id="CgJnwh23Cw8LqNJ6uvOU-67" style="edgeStyle=orthogonalEdgeStyle;rounded=0;orthogonalLoop=1;jettySize=auto;html=1;exitX=0.5;exitY=0;exitDx=0;exitDy=0;entryX=1;entryY=0.5;entryDx=0;entryDy=0;" edge="1" parent="WIyWlLk6GJQsqaUBKTNV-1" source="CgJnwh23Cw8LqNJ6uvOU-40" target="CgJnwh23Cw8LqNJ6uvOU-11">
          <mxGeometry relative="1" as="geometry">
            <Array as="points">
              <mxPoint x="860" y="190" />
            </Array>
          </mxGeometry>
        </mxCell>
        <mxCell id="CgJnwh23Cw8LqNJ6uvOU-40" value="Dealer Wins!" style="ellipse;whiteSpace=wrap;html=1;fillColor=#d5e8d4;strokeColor=#82b366;" vertex="1" parent="WIyWlLk6GJQsqaUBKTNV-1">
          <mxGeometry x="800" y="660" width="120" height="80" as="geometry" />
        </mxCell>
        <mxCell id="CgJnwh23Cw8LqNJ6uvOU-81" style="edgeStyle=orthogonalEdgeStyle;rounded=0;orthogonalLoop=1;jettySize=auto;html=1;exitX=0.5;exitY=0;exitDx=0;exitDy=0;entryX=1;entryY=0.5;entryDx=0;entryDy=0;" edge="1" parent="WIyWlLk6GJQsqaUBKTNV-1" source="CgJnwh23Cw8LqNJ6uvOU-42" target="CgJnwh23Cw8LqNJ6uvOU-11">
          <mxGeometry relative="1" as="geometry">
            <Array as="points">
              <mxPoint x="1010" y="190" />
            </Array>
          </mxGeometry>
        </mxCell>
        <mxCell id="CgJnwh23Cw8LqNJ6uvOU-42" value="Player Wins!" style="ellipse;whiteSpace=wrap;html=1;fillColor=#d5e8d4;strokeColor=#82b366;" vertex="1" parent="WIyWlLk6GJQsqaUBKTNV-1">
          <mxGeometry x="950" y="765" width="120" height="80" as="geometry" />
        </mxCell>
        <mxCell id="CgJnwh23Cw8LqNJ6uvOU-65" value="No" style="edgeStyle=orthogonalEdgeStyle;rounded=0;orthogonalLoop=1;jettySize=auto;html=1;exitX=0;exitY=0.5;exitDx=0;exitDy=0;entryX=0.5;entryY=1;entryDx=0;entryDy=0;" edge="1" parent="WIyWlLk6GJQsqaUBKTNV-1" source="CgJnwh23Cw8LqNJ6uvOU-44" target="CgJnwh23Cw8LqNJ6uvOU-23">
          <mxGeometry relative="1" as="geometry">
            <mxPoint as="offset" />
          </mxGeometry>
        </mxCell>
        <mxCell id="CgJnwh23Cw8LqNJ6uvOU-70" value="Yes" style="edgeStyle=orthogonalEdgeStyle;rounded=0;orthogonalLoop=1;jettySize=auto;html=1;exitX=1;exitY=0.5;exitDx=0;exitDy=0;entryX=0;entryY=0.5;entryDx=0;entryDy=0;" edge="1" parent="WIyWlLk6GJQsqaUBKTNV-1" source="CgJnwh23Cw8LqNJ6uvOU-44" target="CgJnwh23Cw8LqNJ6uvOU-69">
          <mxGeometry relative="1" as="geometry" />
        </mxCell>
        <mxCell id="CgJnwh23Cw8LqNJ6uvOU-44" value="&amp;gt;21?" style="rhombus;whiteSpace=wrap;html=1;fillColor=#fff2cc;strokeColor=#d6b656;" vertex="1" parent="WIyWlLk6GJQsqaUBKTNV-1">
          <mxGeometry x="220" y="990" width="80" height="80" as="geometry" />
        </mxCell>
        <mxCell id="CgJnwh23Cw8LqNJ6uvOU-66" value="No" style="edgeStyle=orthogonalEdgeStyle;rounded=0;orthogonalLoop=1;jettySize=auto;html=1;exitX=1;exitY=0.5;exitDx=0;exitDy=0;entryX=0;entryY=0.5;entryDx=0;entryDy=0;" edge="1" parent="WIyWlLk6GJQsqaUBKTNV-1" source="CgJnwh23Cw8LqNJ6uvOU-52" target="CgJnwh23Cw8LqNJ6uvOU-29">
          <mxGeometry relative="1" as="geometry" />
        </mxCell>
        <mxCell id="CgJnwh23Cw8LqNJ6uvOU-52" value="Y/N" style="rhombus;whiteSpace=wrap;html=1;fillColor=#fff2cc;strokeColor=#d6b656;" vertex="1" parent="WIyWlLk6GJQsqaUBKTNV-1">
          <mxGeometry x="220" y="765" width="80" height="80" as="geometry" />
        </mxCell>
        <mxCell id="CgJnwh23Cw8LqNJ6uvOU-72" value="Yes" style="edgeStyle=orthogonalEdgeStyle;rounded=0;orthogonalLoop=1;jettySize=auto;html=1;exitX=1;exitY=0.5;exitDx=0;exitDy=0;" edge="1" parent="WIyWlLk6GJQsqaUBKTNV-1" source="CgJnwh23Cw8LqNJ6uvOU-69" target="CgJnwh23Cw8LqNJ6uvOU-71">
          <mxGeometry relative="1" as="geometry" />
        </mxCell>
        <mxCell id="CgJnwh23Cw8LqNJ6uvOU-76" value="No" style="edgeStyle=orthogonalEdgeStyle;rounded=0;orthogonalLoop=1;jettySize=auto;html=1;exitX=0.5;exitY=1;exitDx=0;exitDy=0;" edge="1" parent="WIyWlLk6GJQsqaUBKTNV-1" source="CgJnwh23Cw8LqNJ6uvOU-69" target="CgJnwh23Cw8LqNJ6uvOU-75">
          <mxGeometry relative="1" as="geometry" />
        </mxCell>
        <mxCell id="CgJnwh23Cw8LqNJ6uvOU-69" value="=21?" style="rhombus;whiteSpace=wrap;html=1;fillColor=#fff2cc;strokeColor=#d6b656;" vertex="1" parent="WIyWlLk6GJQsqaUBKTNV-1">
          <mxGeometry x="370" y="990" width="80" height="80" as="geometry" />
        </mxCell>
        <mxCell id="CgJnwh23Cw8LqNJ6uvOU-78" value="No" style="edgeStyle=orthogonalEdgeStyle;rounded=0;orthogonalLoop=1;jettySize=auto;html=1;exitX=0.5;exitY=1;exitDx=0;exitDy=0;entryX=0.5;entryY=0;entryDx=0;entryDy=0;" edge="1" parent="WIyWlLk6GJQsqaUBKTNV-1" source="CgJnwh23Cw8LqNJ6uvOU-71" target="CgJnwh23Cw8LqNJ6uvOU-77">
          <mxGeometry relative="1" as="geometry" />
        </mxCell>
        <mxCell id="CgJnwh23Cw8LqNJ6uvOU-80" value="Yes" style="edgeStyle=orthogonalEdgeStyle;rounded=0;orthogonalLoop=1;jettySize=auto;html=1;exitX=1;exitY=0.5;exitDx=0;exitDy=0;" edge="1" parent="WIyWlLk6GJQsqaUBKTNV-1" source="CgJnwh23Cw8LqNJ6uvOU-71" target="CgJnwh23Cw8LqNJ6uvOU-79">
          <mxGeometry relative="1" as="geometry" />
        </mxCell>
        <mxCell id="CgJnwh23Cw8LqNJ6uvOU-71" value="Dealer&#39;s list = 21?" style="rhombus;whiteSpace=wrap;html=1;fillColor=#fff2cc;strokeColor=#d6b656;" vertex="1" parent="WIyWlLk6GJQsqaUBKTNV-1">
          <mxGeometry x="520" y="965" width="130" height="130" as="geometry" />
        </mxCell>
        <mxCell id="CgJnwh23Cw8LqNJ6uvOU-86" style="edgeStyle=orthogonalEdgeStyle;rounded=0;orthogonalLoop=1;jettySize=auto;html=1;exitX=0.5;exitY=1;exitDx=0;exitDy=0;entryX=1;entryY=0.5;entryDx=0;entryDy=0;" edge="1" parent="WIyWlLk6GJQsqaUBKTNV-1" source="CgJnwh23Cw8LqNJ6uvOU-75" target="CgJnwh23Cw8LqNJ6uvOU-11">
          <mxGeometry relative="1" as="geometry">
            <Array as="points">
              <mxPoint x="410" y="1210" />
              <mxPoint x="1140" y="1210" />
              <mxPoint x="1140" y="190" />
            </Array>
          </mxGeometry>
        </mxCell>
        <mxCell id="CgJnwh23Cw8LqNJ6uvOU-75" value="Dealer Wins!" style="ellipse;whiteSpace=wrap;html=1;fillColor=#d5e8d4;strokeColor=#82b366;" vertex="1" parent="WIyWlLk6GJQsqaUBKTNV-1">
          <mxGeometry x="350" y="1110" width="120" height="80" as="geometry" />
        </mxCell>
        <mxCell id="CgJnwh23Cw8LqNJ6uvOU-88" style="edgeStyle=orthogonalEdgeStyle;rounded=0;orthogonalLoop=1;jettySize=auto;html=1;exitX=0.5;exitY=1;exitDx=0;exitDy=0;entryX=1;entryY=0.5;entryDx=0;entryDy=0;" edge="1" parent="WIyWlLk6GJQsqaUBKTNV-1" source="CgJnwh23Cw8LqNJ6uvOU-77" target="CgJnwh23Cw8LqNJ6uvOU-11">
          <mxGeometry relative="1" as="geometry">
            <Array as="points">
              <mxPoint x="585" y="1210" />
              <mxPoint x="1190" y="1210" />
              <mxPoint x="1190" y="190" />
            </Array>
          </mxGeometry>
        </mxCell>
        <mxCell id="CgJnwh23Cw8LqNJ6uvOU-77" value="Player Wins!" style="ellipse;whiteSpace=wrap;html=1;fillColor=#d5e8d4;strokeColor=#82b366;" vertex="1" parent="WIyWlLk6GJQsqaUBKTNV-1">
          <mxGeometry x="525" y="1110" width="120" height="80" as="geometry" />
        </mxCell>
        <mxCell id="CgJnwh23Cw8LqNJ6uvOU-85" style="edgeStyle=orthogonalEdgeStyle;rounded=0;orthogonalLoop=1;jettySize=auto;html=1;exitX=1;exitY=0.5;exitDx=0;exitDy=0;entryX=1;entryY=0.5;entryDx=0;entryDy=0;" edge="1" parent="WIyWlLk6GJQsqaUBKTNV-1" source="CgJnwh23Cw8LqNJ6uvOU-79" target="CgJnwh23Cw8LqNJ6uvOU-11">
          <mxGeometry relative="1" as="geometry">
            <Array as="points">
              <mxPoint x="1080" y="1030" />
              <mxPoint x="1080" y="190" />
            </Array>
          </mxGeometry>
        </mxCell>
        <mxCell id="CgJnwh23Cw8LqNJ6uvOU-79" value="Dealer Wins!" style="ellipse;whiteSpace=wrap;html=1;fillColor=#d5e8d4;strokeColor=#82b366;" vertex="1" parent="WIyWlLk6GJQsqaUBKTNV-1">
          <mxGeometry x="720" y="990" width="120" height="80" as="geometry" />
        </mxCell>
      </root>
    </mxGraphModel>
  </diagram>
</mxfile>
